 <svg version="1.0" xmlns="http://www.w3.org/2000/svg"  width="300.000000pt" height="300.000000pt" viewBox="0 0 300.000000 300.000000"  preserveAspectRatio="xMidYMid meet">  <g transform="translate(0.000000,300.000000) scale(0.100000,-0.100000)" fill="#000000" stroke="none"> <path d="M0 1500 l0 -1500 1500 0 1500 0 0 1500 0 1500 -1500 0 -1500 -1 0 -1499z m1724 986 c71 -51 168 -101 246 -128 69 -24 217 -48 293 -48 58 0 252 26 268 36 13 7 13 10 -26 -280 -95 -704 -197 -1048 -376 -1271 -124 -154 -316 -314 -512 -426 -126 -72 -108 -73 -282 13 -142 71 -264 158 -383 273 -229 219 -313 380 -387 740 -31 152 -70 459 -84 670 -6 88 -14 186 -17 218 -3 31 -1 57 4 57 5 0 55 -7 113 -16 336 -52 642 62 855 318 l57 68 85 -91 c47 -49 112 -109 146 -133z m-1557 -598 c-3 -8 -6 -5 -6 6 -1 11 2 17 5 13 3 -3 4 -12 1 -19z"/> <path d="M1432 2596 c-29 -35 -77 -83 -107 -106 -30 -23 -55 -44 -55 -46 0 -16 32 9 119 91 115 109 105 108 191 19 56 -57 149 -128 207 -158 57 -29 50 -17 -12 20 -88 53 -165 120 -256 225 -9 11 -21 19 -26 19 -5 0 -33 -29 -61 -64z"/> <path d="M1430 2533 c-204 -206 -461 -306 -748 -289 -62 4 -120 10 -129 13 -14 6 -15 -5 -9 -108 33 -528 120 -979 226 -1165 125 -217 391 -449 653 -569 l75 -34 94 54 c51 29 129 80 173 112 103 75 300 270 354 351 110 164 197 435 265 832 23 133 77 522 73 527 -1 1 -40 -3 -87 -9 -222 -26 -473 36 -661 163 -35 23 -98 75 -139 115 l-75 73 -65 -66z m277 -179 c120 -86 246 -130 404 -141 85 -5 224 6 283 24 17 5 18 1 12 -43 -4 -27 -20 -148 -37 -269 -67 -496 -146 -781 -266 -968 -95 -148 -313 -341 -508 -449 l-89 -49 -56 21 c-259 99 -556 362 -661 585 -66 141 -112 329 -148 605 -19 146 -55 560 -49 565 2 2 44 -4 93 -12 294 -49 558 46 756 272 l53 61 75 -79 c42 -44 104 -99 138 -123z"/> <path d="M1439 2452 c-71 -77 -131 -124 -225 -177 -43 -25 -75 -45 -70 -45 15 0 136 64 136 72 0 4 5 8 11 8 15 0 52 30 131 106 75 71 82 72 130 16 30 -36 148 -132 162 -132 6 0 -5 12 -24 27 -19 15 -71 62 -116 105 l-81 79 -54 -59z"/> <path d="M1439 2394 c-117 -120 -266 -203 -423 -235 -96 -20 -231 -24 -305 -10 l-44 9 7 -112 c23 -370 84 -721 157 -904 83 -209 307 -430 566 -561 46 -22 90 -41 100 -41 26 0 188 101 279 174 100 80 225 212 275 289 102 158 187 470 244 892 13 105 27 206 31 226 l5 37 -43 -9 c-69 -13 -199 -10 -289 7 -161 30 -304 104 -429 221 l-77 72 -54 -55z"/> <path d="M1730 2290 c0 -5 5 -10 11 -10 5 0 7 5 4 10 -3 6 -8 10 -11 10 -2 0 -4 -4 -4 -10z"/> <path d="M1766 2270 c15 -15 152 -70 173 -69 9 0 -9 9 -39 20 -30 11 -72 29 -93 40 -43 21 -56 24 -41 9z"/> <path d="M1110 2219 c0 -5 5 -7 10 -4 6 3 10 8 10 11 0 2 -4 4 -10 4 -5 0 -10 -5 -10 -11z"/> <path d="M1045 2204 l-50 -13 45 5 c25 3 49 9 55 15 5 5 7 9 5 8 -3 0 -27 -7 -55 -15z"/> <path d="M627 2123 c7 -95 13 -107 13 -27 0 33 5 65 12 72 7 7 32 13 58 13 41 1 42 2 15 9 -16 4 -47 8 -67 9 l-37 1 6 -77z"/> <path d="M1961 2196 c2 -2 18 -6 34 -10 22 -5 26 -4 15 4 -14 9 -59 15 -49 6z"/> <path d="M2343 2193 c-10 -4 -10 -9 1 -25 9 -12 13 -35 10 -57 -3 -28 -2 -32 5 -16 11 24 14 105 4 104 -5 0 -14 -3 -20 -6z"/> <path d="M2038 2183 c6 -2 18 -2 25 0 6 3 1 5 -13 5 -14 0 -19 -2 -12 -5z"/> <path d="M838 2173 c7 -3 16 -2 19 1 4 3 -2 6 -13 5 -11 0 -14 -3 -6 -6z"/> <path d="M2143 2173 c9 -2 25 -2 35 0 9 3 1 5 -18 5 -19 0 -27 -2 -17 -5z"/> <path d="M2347 2063 c-4 -3 -7 -29 -7 -56 0 -63 6 -58 13 11 6 53 5 57 -6 45z"/> <path d="M638 1968 c5 -90 10 -95 11 -10 1 39 -3 72 -7 72 -5 0 -7 -28 -4 -62z"/> <path d="M2315 1832 c-4 -40 -5 -76 -2 -78 7 -7 20 121 15 138 -3 7 -8 -20 -13 -60z"/> <path d="M2294 1696 c-3 -21 -4 -39 -1 -42 2 -3 8 11 11 32 4 20 5 38 2 41 -2 3 -8 -11 -12 -31z"/> <path d="M672 1675 c0 -22 3 -60 7 -85 l8 -45 1 40 c0 22 -3 60 -7 85 l-8 45 -1 -40z"/> <path d="M2278 1601 c-2 -22 0 -37 3 -35 9 5 17 74 8 74 -4 0 -9 -18 -11 -39z"/> <path d="M2271 1534 c0 -11 3 -14 6 -6 3 7 2 16 -1 19 -3 4 -6 -2 -5 -13z"/> <path d="M706 1456 c4 -56 10 -75 17 -65 2 2 -3 31 -10 64 l-12 60 5 -59z"/> <path d="M2251 1480 c-1 -8 -4 -26 -7 -40 -5 -19 -4 -22 5 -14 7 6 11 24 8 40 -2 16 -5 22 -6 14z"/> <path d="M2225 1374 c-6 -34 -57 -200 -72 -234 -3 -8 -7 -17 -8 -20 0 -3 -15 -32 -32 -65 -88 -171 -304 -379 -519 -499 -83 -47 -98 -50 -149 -31 -15 6 -17 5 -9 -4 22 -24 79 -24 125 -1 120 61 293 195 405 312 120 126 170 213 233 405 47 144 54 173 42 173 -5 0 -12 -16 -16 -36z"/> <path d="M720 1363 c0 -12 5 -25 10 -28 13 -8 13 15 0 35 -8 12 -10 11 -10 -7z"/> <path d="M735 1300 c28 -109 82 -242 125 -308 38 -58 140 -175 194 -224 17 -15 45 -39 61 -53 67 -60 305 -205 305 -186 0 5 -21 19 -47 32 -146 69 -326 216 -440 359 -78 97 -126 187 -162 305 -21 68 -49 126 -36 75z"/> <path d="M1228 2420 c-14 -11 -38 -24 -53 -30 -15 -6 -25 -13 -22 -16 7 -7 107 48 107 59 0 11 -5 9 -32 -13z"/> <path d="M1870 2356 c28 -17 50 -21 35 -7 -6 5 -21 12 -35 15 l-25 7 25 -15z"/> <path d="M1920 2336 c0 -2 7 -7 16 -10 8 -3 12 -2 9 4 -6 10 -25 14 -25 6z"/> <path d="M1980 2316 c0 -2 9 -6 20 -9 11 -3 18 -1 14 4 -5 9 -34 13 -34 5z"/> <path d="M2472 2302 c-22 -3 -23 -5 -7 -22 13 -15 16 -32 13 -74 -6 -77 9 -71 17 8 9 80 6 92 -23 88z"/> <path d="M501 2218 c0 -46 4 -105 9 -133 5 -34 6 -15 3 58 -6 103 -5 109 17 132 l23 25 -26 0 -27 0 1 -82z"/> <path d="M900 2290 c-13 -9 -13 -10 0 -10 8 0 22 5 30 10 13 9 13 10 0 10 -8 0 -22 -5 -30 -10z"/> <path d="M2080 2291 c25 -9 107 -15 99 -7 -2 2 -31 6 -64 9 -39 4 -51 3 -35 -2z"/> <path d="M595 2279 c22 -4 56 -8 75 -7 l35 0 -30 8 c-16 4 -50 8 -75 8 l-45 0 40 -9z"/> <path d="M775 2280 l-70 -6 70 -2 c39 0 79 3 90 8 20 9 20 9 0 8 -11 -1 -51 -4 -90 -8z"/> <path d="M2300 2277 c0 -7 100 1 110 10 2 2 -21 3 -53 1 -31 -2 -57 -7 -57 -11z"/> <path d="M2198 2273 c7 -3 16 -2 19 1 4 3 -2 6 -13 5 -11 0 -14 -3 -6 -6z"/> <path d="M2455 2008 c-9 -73 -19 -144 -21 -158 -4 -19 -3 -21 4 -10 11 17 47 288 39 296 -2 2 -12 -55 -22 -128z"/> <path d="M512 2010 c0 -14 4 -36 8 -50 8 -24 8 -24 8 5 0 17 -3 39 -8 50 -8 18 -9 18 -8 -5z"/> <path d="M527 1860 c3 -41 9 -79 14 -84 10 -11 1 84 -12 129 -5 19 -6 4 -2 -45z"/> <path d="M2422 1788 c3 -7 -1 -37 -9 -68 -7 -30 -12 -68 -12 -85 1 -16 9 11 20 60 22 110 21 105 8 105 -6 0 -9 -5 -7 -12z"/> <path d="M541 1714 c0 -11 3 -14 6 -6 3 7 2 16 -1 19 -3 4 -6 -2 -5 -13z"/> <path d="M570 1537 c0 -20 4 -38 9 -42 6 -3 7 10 4 32 -8 50 -13 55 -13 10z"/> <path d="M2382 1550 c0 -14 2 -19 5 -12 2 6 2 18 0 25 -3 6 -5 1 -5 -13z"/> <path d="M2345 1398 c-15 -68 -34 -137 -42 -155 -7 -18 -9 -34 -5 -37 4 -3 20 39 35 92 39 141 56 222 48 222 -4 0 -20 -55 -36 -122z"/> <path d="M582 1460 c0 -14 2 -19 5 -12 2 6 2 18 0 25 -3 6 -5 1 -5 -13z"/> <path d="M601 1368 c4 -24 8 -46 9 -50 0 -5 4 -8 9 -8 5 0 4 19 -1 43 -14 57 -28 69 -17 15z"/> <path d="M641 1222 c-1 -13 10 -57 24 -98 56 -167 135 -284 301 -445 86 -83 203 -174 254 -198 l25 -12 -24 18 c-14 10 -41 30 -60 45 -20 16 -53 39 -73 53 -94 63 -282 276 -342 387 -28 51 -82 189 -96 243 -7 25 -8 26 -9 7z"/> <path d="M2276 1168 c-3 -13 -6 -30 -6 -38 1 -13 2 -13 9 0 16 27 22 60 13 60 -5 0 -12 -10 -16 -22z"/> <path d="M2226 1039 c-15 -39 -51 -105 -79 -147 -57 -87 -273 -307 -357 -364 -30 -21 -66 -46 -80 -57 -14 -12 -31 -21 -37 -21 -7 0 -13 -4 -13 -10 0 -5 -5 -10 -10 -10 -12 0 -109 -60 -97 -60 16 0 126 67 227 139 120 85 307 267 367 356 45 67 88 150 109 207 23 66 0 41 -30 -33z"/> <path d="M1265 454 c28 -21 96 -56 101 -51 2 2 -16 14 -41 26 -24 12 -47 26 -50 32 -4 5 -12 9 -18 9 -7 0 -3 -8 8 -16z"/> <path d="M1385 390 c3 -5 11 -10 16 -10 6 0 7 5 4 10 -3 6 -11 10 -16 10 -6 0 -7 -4 -4 -10z"/> <path d="M1464 356 c25 -20 50 -20 66 -1 14 16 6 18 -25 6 -11 -5 -29 -4 -40 1 -20 9 -20 9 -1 -6z"/> </g> </svg> 